<svg width="188.65" height="188.65" version="1.1" viewBox="0 0 188.65 188.65" xml:space="preserve" xmlns="http://www.w3.org/2000/svg"><g transform="matrix(1.3333 0 0 -1.3333 -.0038667 189.82)"><g transform="translate(2.5275)"><g transform="translate(104.06 71.128)"><path d="m0 0v0.49c0 15.32-4.74 30.69-14.15 43.74l19.44 27.01h0.01l25.63-63.25c1.03-2.56 1.5-5.28 1.44-7.99z" fill="#9184be"/></g><g transform="translate(136.43 71.128)"><path d="m0 0c-0.06-2.38-0.52-4.75-1.43-7l-25.46-63.25h-0.02l-19.56 27.081c9.3 12.899 14 28.029 14.1 43.169z" fill="#522583"/></g><g transform="translate(109.52 .8786)"><path d="m0 0h-52.52l-52.67 59.35c-2.88 3.25-4.33 7.319-4.33 11.4h62.43c0-3.541 1.09-7.07 3.26-10.081l24.27-33.589z" fill="#8d1d81"/></g><g transform="translate(109.35 142.37)"><path d="m0 0-19.44-27.01-24.22-33.66c-2.17-3-3.26-6.54-3.26-10.07h-62.43c-0.01 4.07 1.43 8.15 4.31 11.41l52.44 59.33z" fill="#522583"/></g></g></g></svg>
