<?xml version="1.0" encoding="UTF-8" standalone="no"?>
<!-- Created with Inkscape (http://www.inkscape.org/) -->

<svg
   version="1.1"
   id="svg824"
   xml:space="preserve"
   width="188.65359"
   height="188.65359"
   viewBox="0 0 188.6536 188.65359"
   sodipodi:docname="altec-square.svg"
   inkscape:version="1.1 (c68e22c387, 2021-05-23)"
   xmlns:inkscape="http://www.inkscape.org/namespaces/inkscape"
   xmlns:sodipodi="http://sodipodi.sourceforge.net/DTD/sodipodi-0.dtd"
   xmlns="http://www.w3.org/2000/svg"
   xmlns:svg="http://www.w3.org/2000/svg"><defs
     id="defs828"><clipPath
       clipPathUnits="userSpaceOnUse"
       id="clipPath838"><path
         d="M 0,142.369 H 435.06 V 0 H 0 Z"
         id="path836" /></clipPath></defs><sodipodi:namedview
     id="namedview826"
     pagecolor="#ffffff"
     bordercolor="#666666"
     borderopacity="1.0"
     inkscape:pageshadow="2"
     inkscape:pageopacity="0.0"
     inkscape:pagecheckerboard="0"
     showgrid="false"
     fit-margin-top="0"
     fit-margin-left="0"
     fit-margin-right="0"
     fit-margin-bottom="0"
     inkscape:zoom="1.5444495"
     inkscape:cx="162.51745"
     inkscape:cy="18.453177"
     inkscape:window-width="1920"
     inkscape:window-height="1017"
     inkscape:window-x="1912"
     inkscape:window-y="-8"
     inkscape:window-maximized="1"
     inkscape:current-layer="g830" /><g
     id="g830"
     inkscape:groupmode="layer"
     inkscape:label="Logo"
     transform="matrix(1.3333333,0,0,-1.3333333,-0.00386667,189.8244)"><g
       id="g1217"
       transform="translate(2.5275054)"><g
         id="g840"
         transform="translate(104.063,71.1281)"><path
           d="M 0,0 V 0.49 C 0,15.81 -4.74,31.18 -14.15,44.23 L 5.29,71.24 H 5.3 L 30.93,7.99 C 31.96,5.43 32.43,2.71 32.37,0 Z"
           style="fill:#9184be;fill-opacity:1;fill-rule:nonzero;stroke:none"
           id="path842" /></g><g
         id="g844"
         transform="translate(136.4331,71.1281)"><path
           d="m 0,0 c -0.06,-2.38 -0.52,-4.75 -1.43,-7 l -25.46,-63.25 h -0.02 l -19.56,27.081 c 9.3,12.899 14,28.029 14.1,43.169 z"
           style="fill:#522583;fill-opacity:1;fill-rule:nonzero;stroke:none"
           id="path846" /></g><g
         id="g848"
         transform="translate(109.5229,0.8786)"><path
           d="m 0,0 h -52.52 l -52.67,59.35 c -2.88,3.25 -4.33,7.319 -4.33,11.4 h 62.43 c 0,-3.541 1.09,-7.07 3.26,-10.081 L -19.56,27.08 Z"
           style="fill:#8d1d81;fill-opacity:1;fill-rule:nonzero;stroke:none"
           id="path850" /></g><g
         id="g856"
         transform="translate(109.353,142.3683)"><path
           d="m 0,0 -19.44,-27.01 -24.22,-33.66 c -2.17,-3 -3.26,-6.54 -3.26,-10.07 h -62.43 c -0.01,4.07 1.43,8.15 4.31,11.41 L -52.6,0 Z"
           style="fill:#522583;fill-opacity:1;fill-rule:nonzero;stroke:none"
           id="path858" /></g></g></g></svg>
